<svg id="Layer_1" data-name="Layer 1" xmlns="http://www.w3.org/2000/svg" viewBox="0 0 120 40"><defs><style>.cls-1{fill:#fff;stroke:#aeaeae;}.cls-2{fill:#848484;}.cls-3{fill:#aeaeae;}</style></defs><rect class="cls-1" width="120" height="40" stroke-width="2" vector-effect="non-scaling-stroke"/><path class="cls-2" d="M41.79,23.81h5.07v2.24h-8V14h2.91Z"/><path class="cls-2" d="M57.8,20.25a7.09,7.09,0,0,1-.66,3.13,4.83,4.83,0,0,1-1.86,2.1,5.59,5.59,0,0,1-5.49,0,4.76,4.76,0,0,1-1.86-2,7,7,0,0,1-.71-3v-.68a7.06,7.06,0,0,1,.66-3.13,4.82,4.82,0,0,1,1.86-2.1,5.27,5.27,0,0,1,2.77-.74,5.16,5.16,0,0,1,2.74.74,4.89,4.89,0,0,1,1.87,2.07,7,7,0,0,1,.68,3.1Zm-3-.5A5.1,5.1,0,0,0,54.23,17a1.92,1.92,0,0,0-1.72-.93c-1.46,0-2.23,1.09-2.32,3.29v.88A5.13,5.13,0,0,0,50.78,23a2,2,0,0,0,3.45,0,5.09,5.09,0,0,0,.61-2.7Z"/><path class="cls-2" d="M69.2,24.55a4.77,4.77,0,0,1-2,1.21,8.63,8.63,0,0,1-2.84.45,5,5,0,0,1-3.79-1.45,5.84,5.84,0,0,1-1.52-4v-1a7.24,7.24,0,0,1,.63-3.12,4.7,4.7,0,0,1,1.81-2.05,5.14,5.14,0,0,1,2.71-.71,5.34,5.34,0,0,1,3.51,1,4.41,4.41,0,0,1,1.46,3.08H66.38a2.26,2.26,0,0,0-.65-1.44A2.07,2.07,0,0,0,64.32,16a1.9,1.9,0,0,0-1.69.93A5,5,0,0,0,62,19.61v.73a4.86,4.86,0,0,0,.62,2.72,2.18,2.18,0,0,0,2,.91,2.42,2.42,0,0,0,1.69-.51V21.59h-2v-2H69.2Z"/><path class="cls-2" d="M81.12,20.25a7.23,7.23,0,0,1-.65,3.13,4.85,4.85,0,0,1-1.87,2.1,5.59,5.59,0,0,1-5.49,0,4.89,4.89,0,0,1-1.86-2,6.83,6.83,0,0,1-.7-3v-.68a7.2,7.2,0,0,1,.65-3.13,4.84,4.84,0,0,1,1.87-2.1,5.24,5.24,0,0,1,2.77-.74,5.18,5.18,0,0,1,2.74.74,5,5,0,0,1,1.87,2.07,7,7,0,0,1,.67,3.1Zm-3-.5a5.11,5.11,0,0,0-.6-2.74,1.93,1.93,0,0,0-1.72-.93c-1.46,0-2.24,1.09-2.32,3.29v.88A5.22,5.22,0,0,0,74.1,23a1.92,1.92,0,0,0,1.75,1,1.88,1.88,0,0,0,1.7-.94,5.09,5.09,0,0,0,.61-2.7Z"/></svg>