<svg id="Layer_1" data-name="Layer 1" xmlns="http://www.w3.org/2000/svg" width="505" height="361" viewBox="0 0 505 361"><defs><style>.cls-1,.cls-4,.cls-5{fill:#e9e9e9;}.cls-1,.cls-3,.cls-4,.cls-5{stroke:#848484;}.cls-1{stroke-width:5px;}.cls-2{fill:#848484;}.cls-3{fill:none;stroke-width:0.75px;}.cls-4{stroke-width:3px;}.cls-5{stroke-width:2px;}</style></defs><path class="cls-1" d="M13.5,2.48C12.33,2.49,2,2.89,2,14V279.06c0,1.16.41,11.5,11.5,11.5H454.43c1.17,0,11.5-.41,11.5-11.5V14c0-1.17-.41-11.5-11.5-11.5Z"/><rect class="cls-2" x="202.67" y="293.06" width="62.58" height="38.16"/><path class="cls-2" d="M171.8,328.16s-5,0-5,5v3.74s0,5,5,5H296.13s5,0,5-5v-3.74s0-5-5-5Z"/><line class="cls-3" x1="48.54" y1="37.87" x2="419.39" y2="255.16"/><line class="cls-3" x1="48.54" y1="255.16" x2="419.39" y2="37.87"/><path class="cls-4" d="M300.08,71.36s-6,0-6,6V343.42s0,6,6,6H497s6,0,6-6V77.36s0-6-6-6Z"/><line class="cls-3" x1="323.77" y1="101.64" x2="473.31" y2="319.15"/><line class="cls-3" x1="323.77" y1="319.15" x2="473.31" y2="101.64"/><path class="cls-5" d="M245.73,170.81s-4,0-4,4V355.69s0,4,4,4h96.71s4,0,4-4V174.81s0-4-4-4Z"/><line class="cls-3" x1="260.25" y1="198.97" x2="327.92" y2="331.54"/><line class="cls-3" x1="260.25" y1="331.54" x2="327.92" y2="198.97"/></svg>