<?xml version="1.0" encoding="utf-8"?>
<!-- Generator: Adobe Illustrator 24.0.1, SVG Export Plug-In . SVG Version: 6.00 Build 0)  -->
<svg version="1.1" id="Layer_1" xmlns="http://www.w3.org/2000/svg" xmlns:xlink="http://www.w3.org/1999/xlink" x="0px" y="0px"
	 viewBox="0 0 496.07 345.1" style="enable-background:new 0 0 496.07 345.1;" xml:space="preserve">
<style type="text/css">
	.st0{fill:#FFFFFF;}
</style>
<g>
	<g>
		<path class="st0" d="M308.56,257.06c-38.87,0-77.74-0.02-116.62,0.06c-1.92,0-2.83-0.78-3.7-2.19c-1.2-1.96-2.53-3.84-3.73-5.79
			c-1.04-1.69-1.99-3.43-2.95-5.16c-1.03-1.85-2.06-3.69-3.02-5.58c-0.74-1.45-1.37-2.96-2.03-4.45c-0.77-1.74-1.53-3.48-2.3-5.22
			c-0.82-1.88-1.52-3.79-0.97-5.9c0.55-2.13,1.68-3.79,3.56-5.02c2.23-1.45,4.34-3.09,6.52-4.61c1.86-1.3,3.76-2.54,5.62-3.82
			c1.18-0.81,2.34-1.67,3.5-2.5c1.42-1.02,2.83-2.04,4.26-3.05c1.35-0.95,2.73-1.87,4.08-2.81c1.96-1.37,3.91-2.74,5.86-4.13
			c2.21-1.57,4.4-3.15,6.62-4.71c1.65-1.16,3.32-2.28,4.96-3.45c1.76-1.24,3.48-2.53,5.24-3.77c1.38-0.97,2.79-1.89,4.18-2.85
			c1.8-1.26,3.58-2.55,5.38-3.81c1.83-1.27,3.69-2.51,5.52-3.78c1.26-0.87,2.49-1.78,3.74-2.67c1.42-1.02,2.83-2.04,4.26-3.05
			c1.72-1.22,3.44-2.42,5.17-3.63c1.54-1.07,3.09-2.12,4.63-3.19c1.33-0.93,2.63-1.9,3.96-2.83c1.88-1.31,3.77-2.59,5.65-3.9
			c1.65-1.15,3.28-2.32,4.92-3.48c1.83-1.29,3.66-2.56,5.48-3.86c1.76-1.25,3.46-2.57,5.26-3.76c0.74-0.49,1.64-0.9,2.51-1.03
			c1.66-0.24,2.73,1.37,2.94,2.81c0.06,0.41,0.01,0.85,0.01,1.27c0,24.09,0.01,48.17-0.02,72.26c0,2.61,0.94,4.68,2.85,6.35
			c1.48,1.29,4.89,1.63,6.63,0.7c0.7-0.37,1.46-0.66,2.09-1.14c1.11-0.84,1.87-1.98,2.08-3.37c0.21-1.39,0.41-2.81,0.41-4.21
			c0.02-29.85,0.04-59.7-0.02-89.55c-0.01-3.18-1.69-5.86-4.91-7.13c-3.05-1.2-5.64-0.39-8.09,1.5c-1.26,0.97-2.62,1.8-3.91,2.72
			c-1.84,1.31-3.66,2.66-5.51,3.97c-1.32,0.94-2.67,1.83-4.01,2.76c-1.7,1.18-3.39,2.36-5.08,3.54c-2,1.39-4,2.78-5.98,4.19
			c-2.15,1.52-4.27,3.07-6.42,4.58c-1.74,1.22-3.53,2.39-5.28,3.62c-1.8,1.26-3.56,2.56-5.35,3.82c-1.84,1.29-3.7,2.54-5.54,3.83
			c-2.1,1.48-4.18,3.01-6.28,4.49c-1.35,0.95-2.74,1.85-4.09,2.8c-1.76,1.24-3.49,2.53-5.25,3.78c-1.39,0.98-2.8,1.93-4.2,2.9
			c-2.1,1.46-4.2,2.92-6.29,4.39c-1.38,0.96-2.75,1.94-4.11,2.91c-1.81,1.29-3.6,2.61-5.42,3.89c-1.74,1.22-3.53,2.39-5.28,3.61
			c-2.27,1.59-4.52,3.22-6.79,4.81c-1.77,1.24-3.56,2.46-5.34,3.7c-1.64,1.15-3.27,2.31-4.91,3.47c-1.46,1.03-2.92,2.04-4.37,3.07
			c-1.37,0.97-2.74,1.95-4.11,2.93c-2.86,2.04-6.23,1.33-7.99-1.44c-0.79-1.24-1.19-2.85-1.38-4.34c-0.57-4.57-1.12-9.16-1.36-13.75
			c-0.29-5.63-0.35-11.28-0.31-16.92c0.02-2.8,0.45-5.61,0.76-8.4c0.24-2.22,0.5-4.45,0.9-6.65c0.56-3.08,1.26-6.13,1.92-9.19
			c0.45-2.09,0.87-4.18,1.43-6.24c0.55-2.01,1.26-3.97,1.88-5.96c0.44-1.41,0.79-2.85,1.27-4.25c0.6-1.75,1.3-3.47,1.96-5.2
			c0.37-0.96,0.72-1.93,1.13-2.87c1.1-2.52,2.19-5.03,3.34-7.53c0.86-1.88,1.75-3.76,2.72-5.59c0.91-1.72,1.92-3.38,2.92-5.05
			c1.26-2.11,2.51-4.22,3.84-6.28c1.09-1.68,2.26-3.31,3.43-4.93c1.02-1.41,2.07-2.81,3.16-4.18c1.46-1.83,2.95-3.64,4.48-5.41
			c1.51-1.75,3.04-3.5,4.65-5.17c1.92-1.99,3.91-3.91,5.91-5.82c1.63-1.55,3.28-3.07,4.99-4.52c1.6-1.35,3.26-2.63,4.94-3.89
			c2.46-1.85,4.91-3.73,7.45-5.47c2.02-1.38,4.16-2.59,6.28-3.84c2.6-1.53,5.2-3.06,7.84-4.5c1.49-0.81,3.08-1.42,4.62-2.15
			c1.9-0.89,3.76-1.87,5.69-2.69c1.84-0.78,3.74-1.42,5.62-2.11c2.02-0.73,4.04-1.46,6.07-2.16c0.91-0.32,1.83-0.62,2.76-0.86
			c1.81-0.47,3.64-0.89,5.46-1.32c2.79-0.66,5.56-1.41,8.37-1.96c2.76-0.54,5.56-0.96,8.35-1.31c3.63-0.46,7.26-0.98,10.91-1.17
			c4.77-0.25,9.56-0.35,14.34-0.24c4.18,0.1,8.36,0.52,12.52,0.91c2.55,0.24,5.08,0.62,7.61,1.05c2.48,0.42,4.94,0.95,7.4,1.5
			c2.2,0.49,4.4,1,6.56,1.65c2.89,0.86,5.73,1.87,8.59,2.81c1.22,0.4,2.46,0.74,3.66,1.21c1.87,0.73,3.72,1.53,5.57,2.31
			c1.26,0.53,2.54,1.05,3.77,1.64c2.13,1.02,4.25,2.08,6.36,3.14c1.32,0.66,2.65,1.32,3.92,2.06c2.21,1.28,4.39,2.59,6.55,3.94
			c1.8,1.12,3.6,2.27,5.33,3.5c2.11,1.49,4.15,3.07,6.22,4.62c1.31,0.98,2.65,1.92,3.9,2.98c2.02,1.71,3.99,3.47,5.93,5.27
			c1.97,1.83,3.91,3.7,5.79,5.63c1.54,1.57,2.99,3.22,4.44,4.88c1.64,1.88,3.28,3.77,4.81,5.74c1.84,2.39,3.6,4.84,5.32,7.31
			c1.84,2.64,3.66,5.29,5.35,8.03c1.36,2.19,2.53,4.5,3.74,6.79c1.27,2.41,2.56,4.83,3.71,7.3c1.04,2.23,1.83,4.57,2.87,6.8
			c0.73,1.57,0.92,3.13,0.69,4.8c-0.23,1.68-1.19,2.87-2.51,3.82c-1.85,1.34-3.73,2.65-5.6,3.96c-2.59,1.81-5.21,3.58-7.8,5.4
			c-2.15,1.51-4.27,3.09-6.42,4.6c-1.82,1.27-3.69,2.48-5.51,3.74c-1.71,1.19-3.38,2.42-5.08,3.62c-1.83,1.29-3.67,2.55-5.49,3.85
			c-2.12,1.5-4.21,3.05-6.33,4.54c-1.82,1.28-3.68,2.5-5.51,3.77c-1.75,1.22-3.49,2.48-5.23,3.72c-2.09,1.49-4.17,2.98-6.26,4.46
			c-1.83,1.3-3.66,2.61-5.51,3.89c-1.8,1.25-3.64,2.45-5.45,3.7c-1.75,1.21-3.48,2.46-5.22,3.69c-1.4,0.99-2.81,1.97-4.21,2.97
			c-1.74,1.24-3.46,2.5-5.2,3.73c-1.32,0.94-2.68,1.84-4,2.78c-2.23,1.58-4.45,3.18-6.69,4.75c-2.18,1.53-4.4,3.02-6.59,4.54
			c-1.18,0.82-2.31,1.71-3.51,2.5c-0.8,0.52-1.66,0.98-2.55,1.34c-0.97,0.39-2.9-0.77-3.14-1.86c-0.15-0.69-0.23-1.42-0.23-2.13
			c-0.01-24.22-0.03-48.44,0.02-72.65c0-2.63-2.07-5.56-4.45-6.59c-3.32-1.42-7.42,0.49-8.84,3.48c-0.61,1.28-0.7,2.54-0.7,3.87
			c-0.01,20.18-0.01,40.36-0.01,60.54c0,10.16,0.03,20.31-0.02,30.47c-0.02,2.64,0.88,4.78,2.99,6.27c2.21,1.56,4.74,2,7.22,0.79
			c1.76-0.85,3.34-2.1,4.99-3.2c1.45-0.98,2.89-1.99,4.32-2.99c1.79-1.26,3.55-2.54,5.35-3.79c1.83-1.28,3.69-2.51,5.52-3.79
			c1.79-1.25,3.56-2.55,5.35-3.81c1.72-1.22,3.47-2.4,5.19-3.61c2.15-1.51,4.28-3.06,6.43-4.56c1.85-1.29,3.73-2.54,5.58-3.83
			c1.72-1.2,3.43-2.43,5.14-3.64c1.78-1.26,3.56-2.51,5.33-3.78c2.17-1.54,4.33-3.11,6.51-4.64c1.8-1.26,3.62-2.48,5.43-3.73
			c1.77-1.23,3.54-2.49,5.3-3.74c1.73-1.22,3.45-2.43,5.18-3.66c2.18-1.55,4.35-3.11,6.54-4.66c1.71-1.21,3.45-2.4,5.16-3.6
			c1.89-1.33,3.78-2.67,5.68-4c1.7-1.19,3.42-2.36,5.12-3.56c1.72-1.21,3.44-2.43,5.16-3.64c1.43-1,2.87-1.98,4.29-2.98
			c2.11-1.49,4.21-2.99,6.3-4.51c1.53-1.11,3.05-2.24,4.95-2.62c1.27-0.25,2.47,0.19,3.53,0.77c1.93,1.06,2.86,2.81,3.12,5.01
			c0.35,2.86,0.94,5.68,1.26,8.54c0.29,2.65,0.44,5.32,0.52,7.98c0.11,3.87,0.19,7.74,0.1,11.61c-0.08,3.67-0.26,7.35-0.62,11
			c-0.33,3.38-0.89,6.74-1.46,10.09c-0.48,2.8-1.08,5.57-1.71,8.34c-0.48,2.13-1.04,4.25-1.65,6.36c-0.79,2.72-1.58,5.45-2.53,8.11
			c-1.26,3.54-2.6,7.06-4.05,10.52c-1.31,3.11-2.68,6.21-4.27,9.18c-1.91,3.55-4.06,6.97-6.14,10.43c-0.9,1.5-1.85,2.98-2.82,4.44
			c-0.17,0.26-0.53,0.44-0.84,0.53c-0.3,0.09-0.65,0.02-0.97,0.02C386.82,257.06,347.69,257.06,308.56,257.06z"/>
		<path class="st0" d="M81.03,92.86c-1.5,0.34-2.87,0.64-4.23,0.95c-2.85,0.65-5.71,1.29-8.56,1.95c-2.19,0.51-4.37,1.04-6.56,1.57
			c-2.11,0.51-4.22,1.04-6.38,1.58c-0.31-1-0.62-1.93-0.87-2.87c-0.4-1.52-0.74-3.05-1.12-4.58c-0.6-2.43-1.2-4.85-1.82-7.28
			c-0.57-2.23-1.15-4.46-1.74-6.69c-0.79-3.03-1.58-6.06-2.38-9.09c-0.57-2.16-1.16-4.32-1.71-6.49c-0.87-3.41-1.7-6.82-2.59-10.23
			c-0.42-1.63-0.94-3.23-1.41-4.85c1.15-0.38,2.17-0.73,3.21-1.04c1.33-0.39,2.67-0.71,4-1.12c2.38-0.72,4.74-1.49,7.12-2.23
			c0.88-0.28,1.77-0.54,2.66-0.8c2.39-0.69,4.79-1.35,7.18-2.06c2.9-0.86,5.79-1.76,8.68-2.66c1.64-0.5,3.27-1.04,4.91-1.53
			c2.01-0.6,4.02-1.16,6.03-1.77c2.54-0.76,5.07-1.56,7.61-2.33c1.94-0.59,3.88-1.21,5.84-1.72c0.97-0.25,1.99-0.41,2.99-0.41
			c13.12-0.03,26.24-0.02,39.36-0.02c0.38,0,0.77,0,1.21,0c0,75.99,0,151.9,0,227.87c-20.46,0-40.89,0-61.43,0
			C81.03,202.34,81.03,147.68,81.03,92.86z"/>
	</g>
	<g>
		<path class="st0" d="M83.86,283.51H66.38v32.6h-6.58v-32.6H42.44v-5.75h41.42V283.51z"/>
		<path class="st0" d="M126.49,316.11L114.6,302.2H98.44v13.92h-6.58v-38.36h26.08c8.93,0,15.51,4.27,15.51,12.22
			c0,6.63-4.6,10.68-11.29,11.89l12.44,14.25H126.49z M117.5,296.55c5.48,0,9.21-1.75,9.21-6.52s-3.73-6.52-9.21-6.52H98.38v13.04
			H117.5z"/>
		<path class="st0" d="M181.99,310.36v5.75H143.8v-38.36h37.64v5.75h-31.12v10.25h26.19v5.75h-26.19v10.85H181.99z"/>
		<path class="st0" d="M233.83,277.76v38.36h-5.81l-29.97-30.25v30.25h-6.36v-38.36h7.01l28.71,29.1v-29.1H233.83z"/>
		<path class="st0" d="M289.28,296.94c0,11.84-9.1,19.18-23.34,19.18h-19.45v-38.36h19.45C280.18,277.76,289.28,285.1,289.28,296.94
			z M282.54,296.94c0-8.88-7.01-13.42-17.1-13.42h-12.38v26.85h12.38C275.52,310.36,282.54,305.81,282.54,296.94z"/>
		<path class="st0" d="M334.15,310.31v5.81H299.3v-38.36h6.58v32.55H334.15z"/>
		<path class="st0" d="M342.2,316.11v-38.36h6.58v38.36H342.2z"/>
		<path class="st0" d="M403.57,277.76v38.36h-5.81l-29.97-30.25v30.25h-6.36v-38.36h7.01l28.71,29.1v-29.1H403.57z"/>
		<path class="st0" d="M454.41,310.36v5.75h-38.19v-38.36h37.64v5.75h-31.12v10.25h26.19v5.75h-26.19v10.85H454.41z"/>
	</g>
</g>
</svg>
