<svg id="Layer_1" data-name="Layer 1" xmlns="http://www.w3.org/2000/svg" width="1380" height="624" viewBox="0 0 1380 624"><defs><style>.cls-1,.cls-2,.cls-4,.cls-5,.cls-6,.cls-7,.cls-8{fill:none;}.cls-1{stroke:#000;}.cls-1,.cls-2,.cls-4{stroke-miterlimit:10;}.cls-2,.cls-5{stroke:gray;}.cls-2{stroke-width:2px;}.cls-16,.cls-3{font-size:26px;}.cls-3{font-family:MyriadPro-Bold, Myriad Pro;}.cls-25,.cls-3{font-weight:700;}.cls-4{stroke:#dfdfdf;}.cls-5,.cls-6,.cls-7,.cls-8{stroke-linecap:round;stroke-linejoin:round;stroke-width:4px;}.cls-6{stroke:#404040;}.cls-7{stroke:#101010;}.cls-8{stroke:#bfbfbf;}.cls-9{fill:#f7f7f7;}.cls-10{fill:gray;}.cls-11{fill:#404040;}.cls-12{fill:#101010;}.cls-13{fill:#bfbfbf;}.cls-14{font-size:24px;font-family:MyriadPro-Black, Myriad Pro;font-weight:800;}.cls-15{letter-spacing:-0.01em;}.cls-16{font-family:MyriadPro-SemiboldIt, Myriad Pro;font-weight:600;}.cls-16,.cls-25{font-style:italic;}.cls-17{letter-spacing:-0.01em;}.cls-18{letter-spacing:0em;}.cls-19{letter-spacing:0.02em;}.cls-20{letter-spacing:-0.01em;}.cls-21{letter-spacing:0em;}.cls-22{letter-spacing:0em;}.cls-23{letter-spacing:0.02em;}.cls-24{fill:#9f9f9f;}.cls-25{font-size:25px;font-family:MyriadPro-BoldIt, Myriad Pro;}</style></defs><line class="cls-1" x1="39.87" y1="562.63" x2="1089.9" y2="562.63"/><line class="cls-2" x1="144.88" y1="562.63" x2="144.88" y2="548.76"/><line class="cls-2" x1="354.88" y1="562.63" x2="354.88" y2="548.76"/><line class="cls-2" x1="564.89" y1="562.63" x2="564.89" y2="548.76"/><line class="cls-2" x1="774.89" y1="562.63" x2="774.89" y2="548.76"/><line class="cls-2" x1="984.89" y1="562.63" x2="984.89" y2="548.76"/><text class="cls-3" transform="translate(9.04 501.74)">1</text><text class="cls-3" transform="translate(9.04 432.39)">2</text><text class="cls-3" transform="translate(9.04 363.04)">3</text><text class="cls-3" transform="translate(9.04 293.69)">4</text><text class="cls-3" transform="translate(9.04 224.33)">5</text><text class="cls-3" transform="translate(9.04 154.98)">6</text><text class="cls-3" transform="translate(9.04 85.63)">7</text><line class="cls-2" x1="39.87" y1="562.63" x2="39.87" y2="7.83"/><line class="cls-2" x1="39.87" y1="562.63" x2="1089.9" y2="562.63"/><line class="cls-4" x1="39.87" y1="493.28" x2="1089.9" y2="493.28"/><line class="cls-4" x1="39.87" y1="423.93" x2="1089.9" y2="423.93"/><line class="cls-4" x1="39.87" y1="354.58" x2="1089.9" y2="354.58"/><line class="cls-4" x1="39.87" y1="285.23" x2="1089.9" y2="285.23"/><line class="cls-4" x1="39.87" y1="215.88" x2="1089.9" y2="215.88"/><line class="cls-4" x1="39.87" y1="146.53" x2="1089.9" y2="146.53"/><line class="cls-4" x1="39.87" y1="77.18" x2="1089.9" y2="77.18"/><line class="cls-5" x1="1179.52" y1="118.79" x2="1270.78" y2="118.79"/><line class="cls-5" x1="354.88" y1="77.18" x2="144.88" y2="285.23"/><line class="cls-5" x1="564.89" y1="146.53" x2="354.88" y2="77.18"/><line class="cls-5" x1="774.89" y1="285.23" x2="564.89" y2="146.53"/><line class="cls-5" x1="984.89" y1="215.88" x2="774.89" y2="285.23"/><line class="cls-6" x1="1179.52" y1="202.01" x2="1270.78" y2="202.01"/><line class="cls-6" x1="354.88" y1="285.23" x2="144.88" y2="354.58"/><line class="cls-6" x1="564.89" y1="493.28" x2="354.88" y2="285.23"/><line class="cls-6" x1="774.89" y1="146.53" x2="564.89" y2="493.28"/><line class="cls-6" x1="984.89" y1="77.18" x2="774.89" y2="146.53"/><line class="cls-7" x1="1179.52" y1="285.23" x2="1270.78" y2="285.23"/><line class="cls-7" x1="354.88" y1="493.28" x2="144.88" y2="423.93"/><line class="cls-7" x1="564.89" y1="423.93" x2="354.88" y2="493.28"/><line class="cls-7" x1="774.89" y1="285.23" x2="564.89" y2="423.93"/><line class="cls-7" x1="984.89" y1="354.58" x2="774.89" y2="285.23"/><line class="cls-8" x1="1179.52" y1="368.45" x2="1270.78" y2="368.45"/><line class="cls-8" x1="354.88" y1="423.93" x2="144.88" y2="493.28"/><line class="cls-8" x1="564.89" y1="354.58" x2="354.88" y2="423.93"/><line class="cls-8" x1="774.89" y1="423.93" x2="564.89" y2="354.58"/><line class="cls-8" x1="984.89" y1="146.53" x2="774.89" y2="423.93"/><circle class="cls-9" cx="1225.15" cy="118.79" r="6"/><path class="cls-10" d="M1225.15,114.79a4,4,0,1,1-4,4,4,4,0,0,1,4-4m0-4a8,8,0,1,0,8,8,8,8,0,0,0-8-8Z"/><circle class="cls-9" cx="144.88" cy="285.23" r="6"/><path class="cls-10" d="M144.88,281.23a4,4,0,1,1-4,4,4,4,0,0,1,4-4m0-4a8,8,0,1,0,8,8,8,8,0,0,0-8-8Z"/><circle class="cls-9" cx="354.88" cy="77.18" r="6"/><path class="cls-10" d="M354.88,73.18a4,4,0,1,1-4,4,4,4,0,0,1,4-4m0-4a8,8,0,1,0,8,8,8,8,0,0,0-8-8Z"/><circle class="cls-9" cx="564.89" cy="146.53" r="6"/><path class="cls-10" d="M564.89,142.53a4,4,0,1,1-4,4,4,4,0,0,1,4-4m0-4a8,8,0,1,0,8,8,8,8,0,0,0-8-8Z"/><circle class="cls-9" cx="774.89" cy="285.23" r="6"/><path class="cls-10" d="M774.89,281.23a4,4,0,1,1-4,4,4,4,0,0,1,4-4m0-4a8,8,0,1,0,8,8,8,8,0,0,0-8-8Z"/><circle class="cls-9" cx="984.89" cy="215.88" r="6"/><path class="cls-10" d="M984.89,211.88a4,4,0,1,1-4,4,4,4,0,0,1,4-4m0-4a8,8,0,1,0,8,8,8,8,0,0,0-8-8Z"/><circle class="cls-9" cx="1225.15" cy="202.01" r="6"/><path class="cls-11" d="M1225.15,198a4,4,0,1,1-4,4,4,4,0,0,1,4-4m0-4a8,8,0,1,0,8,8,8,8,0,0,0-8-8Z"/><circle class="cls-9" cx="144.88" cy="354.58" r="6"/><path class="cls-11" d="M144.88,350.58a4,4,0,1,1-4,4,4,4,0,0,1,4-4m0-4a8,8,0,1,0,8,8,8,8,0,0,0-8-8Z"/><circle class="cls-9" cx="354.88" cy="285.23" r="6"/><path class="cls-11" d="M354.88,281.23a4,4,0,1,1-4,4,4,4,0,0,1,4-4m0-4a8,8,0,1,0,8,8,8,8,0,0,0-8-8Z"/><circle class="cls-9" cx="564.89" cy="493.28" r="6"/><path class="cls-11" d="M564.89,489.28a4,4,0,1,1-4,4,4,4,0,0,1,4-4m0-4a8,8,0,1,0,8,8,8,8,0,0,0-8-8Z"/><circle class="cls-9" cx="774.89" cy="146.53" r="6"/><path class="cls-11" d="M774.89,142.53a4,4,0,1,1-4,4,4,4,0,0,1,4-4m0-4a8,8,0,1,0,8,8,8,8,0,0,0-8-8Z"/><circle class="cls-9" cx="984.89" cy="77.18" r="6"/><path class="cls-11" d="M984.89,73.18a4,4,0,1,1-4,4,4,4,0,0,1,4-4m0-4a8,8,0,1,0,8,8,8,8,0,0,0-8-8Z"/><circle class="cls-9" cx="1225.15" cy="285.23" r="6"/><path class="cls-12" d="M1225.15,281.23a4,4,0,1,1-4,4,4,4,0,0,1,4-4m0-4a8,8,0,1,0,8,8,8,8,0,0,0-8-8Z"/><circle class="cls-9" cx="144.88" cy="423.93" r="6"/><path class="cls-12" d="M144.88,419.93a4,4,0,1,1-4,4,4,4,0,0,1,4-4m0-4a8,8,0,1,0,8,8,8,8,0,0,0-8-8Z"/><circle class="cls-9" cx="354.88" cy="493.28" r="6"/><path class="cls-12" d="M354.88,489.28a4,4,0,1,1-4,4,4,4,0,0,1,4-4m0-4a8,8,0,1,0,8,8,8,8,0,0,0-8-8Z"/><circle class="cls-9" cx="564.89" cy="423.93" r="6"/><path class="cls-12" d="M564.89,419.93a4,4,0,1,1-4,4,4,4,0,0,1,4-4m0-4a8,8,0,1,0,8,8,8,8,0,0,0-8-8Z"/><circle class="cls-9" cx="774.89" cy="285.23" r="6"/><path class="cls-12" d="M774.89,281.23a4,4,0,1,1-4,4,4,4,0,0,1,4-4m0-4a8,8,0,1,0,8,8,8,8,0,0,0-8-8Z"/><circle class="cls-9" cx="984.89" cy="354.58" r="6"/><path class="cls-12" d="M984.89,350.58a4,4,0,1,1-4,4,4,4,0,0,1,4-4m0-4a8,8,0,1,0,8,8,8,8,0,0,0-8-8Z"/><circle class="cls-9" cx="1225.15" cy="368.45" r="6"/><path class="cls-13" d="M1225.15,364.45a4,4,0,1,1-4,4,4,4,0,0,1,4-4m0-4a8,8,0,1,0,8,8,8,8,0,0,0-8-8Z"/><circle class="cls-9" cx="144.88" cy="493.28" r="6"/><path class="cls-13" d="M144.88,489.28a4,4,0,1,1-4,4,4,4,0,0,1,4-4m0-4a8,8,0,1,0,8,8,8,8,0,0,0-8-8Z"/><circle class="cls-9" cx="354.88" cy="423.93" r="6"/><path class="cls-13" d="M354.88,419.93a4,4,0,1,1-4,4,4,4,0,0,1,4-4m0-4a8,8,0,1,0,8,8,8,8,0,0,0-8-8Z"/><circle class="cls-9" cx="564.89" cy="354.58" r="6"/><path class="cls-13" d="M564.89,350.58a4,4,0,1,1-4,4,4,4,0,0,1,4-4m0-4a8,8,0,1,0,8,8,8,8,0,0,0-8-8Z"/><circle class="cls-9" cx="774.89" cy="423.93" r="6"/><path class="cls-13" d="M774.89,419.93a4,4,0,1,1-4,4,4,4,0,0,1,4-4m0-4a8,8,0,1,0,8,8,8,8,0,0,0-8-8Z"/><circle class="cls-9" cx="984.89" cy="146.53" r="6"/><path class="cls-13" d="M984.89,142.53a4,4,0,1,1-4,4,4,4,0,0,1,4-4m0-4a8,8,0,1,0,8,8,8,8,0,0,0-8-8Z"/><text class="cls-14" transform="translate(1307.18 124.24)">i<tspan class="cls-15" x="7.01" y="0">t</tspan><tspan x="16.08" y="0">em4</tspan></text><text class="cls-14" transform="translate(1307.18 207.46)">i<tspan class="cls-15" x="7.01" y="0">t</tspan><tspan x="16.08" y="0">em2</tspan></text><text class="cls-14" transform="translate(1307.18 290.68)">i<tspan class="cls-15" x="7.01" y="0">t</tspan><tspan x="16.08" y="0">em2</tspan></text><text class="cls-14" transform="translate(1307.18 373.91)">i<tspan class="cls-15" x="7.01" y="0">t</tspan><tspan x="16.08" y="0">em 1</tspan></text><text class="cls-16" transform="translate(930.18 608.21)"><tspan class="cls-17">c</tspan><tspan x="10.84" y="0">a</tspan><tspan class="cls-18" x="24.88" y="0">t</tspan><tspan x="33.41" y="0">ego</tspan><tspan class="cls-19" x="74.1" y="0">r</tspan><tspan x="83.67" y="0">y5</tspan></text><text class="cls-16" transform="translate(720.17 608.21)"><tspan class="cls-17">c</tspan><tspan x="10.84" y="0">a</tspan><tspan class="cls-18" x="24.88" y="0">t</tspan><tspan x="33.41" y="0">ego</tspan><tspan class="cls-19" x="74.1" y="0">r</tspan><tspan x="83.67" y="0">y4</tspan></text><text class="cls-16" transform="translate(510.17 608.21)"><tspan class="cls-20">c</tspan><tspan class="cls-21" x="10.84" y="0">a</tspan><tspan class="cls-22" x="24.88" y="0">t</tspan><tspan x="33.41" y="0">ego</tspan><tspan class="cls-23" x="74.1" y="0">r</tspan><tspan class="cls-21" x="83.67" y="0">y3</tspan></text><text class="cls-16" transform="translate(300.17 608.21)"><tspan class="cls-20">c</tspan><tspan class="cls-21" x="10.84" y="0">a</tspan><tspan class="cls-22" x="24.88" y="0">t</tspan><tspan x="33.41" y="0">ego</tspan><tspan class="cls-23" x="74.1" y="0">r</tspan><tspan x="83.67" y="0">y2</tspan></text><text class="cls-16" transform="translate(96.91 608.21)"><tspan class="cls-20">c</tspan><tspan class="cls-21" x="10.84" y="0">a</tspan><tspan class="cls-22" x="24.88" y="0">t</tspan><tspan x="33.41" y="0">ego</tspan><tspan class="cls-23" x="74.1" y="0">r</tspan><tspan x="83.67" y="0">y</tspan></text><path class="cls-24" d="M483.5,349.5c0,13.25-24,27-24,27s-24-13.75-24-27a24,24,0,0,1,48,0Z"/><text class="cls-25" transform="translate(442.73 358.3)">2.5</text><path class="cls-24" d="M940.5,200.5c0,13.25-24,27-24,27s-24-13.75-24-27a24,24,0,0,1,48,0Z"/><text class="cls-25" transform="translate(899.73 209.3)">4.8</text></svg>